<svg width="520" height="90" viewBox="0 0 520 90" xmlns="http://www.w3.org/2000/svg">
	<rect fill="#fff" x="1" y="1" width="520" height="90"/>
	<g transform="translate(-98, 560) scale(1,-1)">
		<path fill="#003876" stroke="none" d="m 212.57797,503.83313 c 5.001,0 7.775,-0.706 7.851,-4.045 0.031,-1.84 -1.216,-3.982 -2.574,-5.032 -3.055,-2.361 -5.738,-2.613 -20.082,-2.613 h -70.762 l 13.671,57.09 h -23.641 c -1.579,0 -2.175,-0.453 -2.645,-2.332 l -12.961,-53.506 c -2.439,-10.638 3.047,-20.367 15.302,-20.367 h 32.459 c 8.221,0 19.225,8.976 23.689,17.268 0.244,0.454 0.402,0.75 0.584,1.129 0,0 0.094,0.114 0.122,-0.052 0,-0.008 0.004,-0.008 0.004,-0.008 -0.71,-2.975 -3.197,-13.51 -3.603,-15.23 -0.525,-2.239 0.643,-3.087 1.72,-3.087 h 34.922 c 29.613,0 41.173,14.095 42.192,31.007 0.565,9.507 -5.451,15.652 -22.461,15.652 h -13.068 c -4.646,0 -9.406,1.528 -9.406,5.301 0,3.777 5.17,7.057 12.188,7.057 h 31.8 c 0,0 2.779,11.134 3.331,13.462 0.687,2.929 -0.194,3.782 -2.337,3.782 h -39.306 c -22.829,0 -33.075,-15.275 -33.075,-26.164 0,-10.901 8.782,-19.296 31.445,-19.296 z" />
		<path fill="#ed174c" stroke="none" d="m 228.02627,558.73063 h 63.264 l -32.542,-16.712 c 0,0 1.311,5.471 1.705,7.105 0.407,1.733 -0.142,3.039 -2.593,3.533 -2.435,0.493 -29.834,6.074 -29.834,6.074"/>
		<g fill="#8e979d" stroke="none">
			<path d="m 293.45687,509.88783 h -0.13 l -6.367,-18.536 h 12.863 z m -4.858,9.015 h 9.962 l 17.283,-44.929 h -9.777 l -3.781,10.297 h -17.848 l -3.848,-10.297 h -9.14 z"/>
			<path d="m 349.64827,473.97373 h -8.012 v 4.505 h -0.122 c -2.586,-3.221 -6.244,-5.278 -10.657,-5.278 -7.696,0 -11.039,5.535 -11.039,13.002 v 20.92 h 8.45 v -17.701 c 0,-4.053 0.063,-9.528 5.486,-9.528 6.122,0 7.44,6.757 7.44,11.008 v 16.221 h 8.454 z"/>
			<path d="m 360.18637,500.81363 h -6.248 v 6.31 h 6.248 v 6.628 l 8.45,2.769 v -9.397 h 7.503 v -6.31 h -7.503 v -15.445 c 0,-2.834 0.75,-5.475 3.971,-5.475 1.512,0 2.964,0.324 3.845,0.9 l 0.255,-6.82 c -1.767,-0.516 -3.725,-0.773 -6.243,-0.773 -6.623,0 -10.278,4.185 -10.278,10.747 z"/>
			<path d="m 395.87777,479.89373 c 6.497,0 8.202,5.923 8.202,11.458 0,5.085 -2.652,9.85 -8.202,9.85 -5.486,0 -8.134,-4.895 -8.134,-9.85 0,-5.473 1.7,-11.458 8.134,-11.458 m 0,28.003 c 9.646,0 17.031,-6.633 17.031,-17.573 0,-9.53 -6.244,-17.123 -17.031,-17.123 -10.72,0 -16.963,7.593 -16.963,17.123 0,10.94 7.38,17.573 16.963,17.573"/>
			<path d="m 418.46177,507.12323 h 7.879 v -4.636 h 0.125 c 2.652,4.056 6.497,5.409 9.65,5.409 4.539,0 7.756,-1.738 9.588,-5.859 1.953,3.99 6.176,5.859 10.151,5.859 8.007,0 10.281,-5.6 10.281,-13.004 v -20.918 h -8.449 v 19.759 c 0,3.09 0,7.468 -4.856,7.468 -5.615,0 -6.31,-6.826 -6.31,-11.137 v -16.09 h -8.451 v 19.759 c 0,3.09 0,7.468 -4.854,7.468 -5.613,0 -6.307,-6.826 -6.307,-11.137 v -16.09 h -8.447 z"/>
			<path d="m 488.59457,479.89373 c 6.496,0 8.197,5.923 8.197,11.458 0,5.085 -2.652,9.85 -8.197,9.85 -5.49,0 -8.139,-4.895 -8.139,-9.85 0,-5.473 1.705,-11.458 8.139,-11.458 m 0,28.003 c 9.645,0 17.025,-6.633 17.025,-17.573 0,-9.53 -6.244,-17.123 -17.025,-17.123 -10.725,0 -16.969,7.593 -16.969,17.123 0,10.94 7.381,17.573 16.969,17.573"/>
			<path d="m 514.07117,500.81363 h -6.24 v 6.31 h 6.24 v 6.628 l 8.453,2.769 v -9.397 h 7.5 v -6.31 h -7.5 v -15.445 c 0,-2.834 0.758,-5.475 3.975,-5.475 1.508,0 2.961,0.324 3.843,0.9 l 0.254,-6.82 c -1.769,-0.516 -3.722,-0.773 -6.244,-0.773 -6.623,0 -10.281,4.185 -10.281,10.747 z"/>
			<path d="m 535.07457,507.12343 h 8.447 v -33.149 h -8.447 z m 0,14.289 h 8.447 v -8.236 h -8.447 z"/>
			<path d="m 547.87587,507.12323 h 9.082 l 8.07,-24.139 h 0.131 l 7.819,24.139 h 8.449 l -11.983,-33.149 h -9.519 z"/>
			<path d="m 605.96567,493.79893 c -0.258,4.186 -2.148,7.791 -6.875,7.791 -4.729,0 -7.129,-3.354 -7.508,-7.791 z m 5.672,-17.958 c -3.092,-1.741 -6.619,-2.641 -11.166,-2.641 -10.717,0 -16.961,6.311 -16.961,17.189 0,9.589 4.982,17.508 15.074,17.508 12.045,0 15.451,-8.435 15.451,-20.023 h -22.453 c 0.379,-5.34 4.033,-8.363 9.272,-8.363 4.099,0 7.629,1.542 10.783,3.345 z"/>
		</g>
	</g>
</svg>
